<svg width="228" height="259" viewBox="0 0 228 259" fill="none" xmlns="http://www.w3.org/2000/svg">
<path d="M178.294 0.548386C177.297 -0.071036 175.986 0.235439 175.367 1.23292C174.747 2.23039 175.054 3.54115 176.051 4.16057L178.294 0.548386ZM191.443 155.301L189.708 154.072L189.708 154.072L191.443 155.301ZM121.847 249.165L123.154 250.842L123.154 250.842L121.847 249.165ZM4.52043 233.233C3.42909 233.666 2.89552 234.902 3.32868 235.993C3.76183 237.084 4.99767 237.618 6.08901 237.185L4.52043 233.233ZM39.5578 258.189C40.6042 258.721 41.8842 258.305 42.4168 257.258C42.9494 256.212 42.5329 254.932 41.4865 254.399L39.5578 258.189ZM20.2429 208.046C20.917 207.084 20.6841 205.758 19.7227 205.084C18.7613 204.41 17.4355 204.643 16.7614 205.605L20.2429 208.046ZM177.173 2.35448C176.051 4.16057 176.051 4.16048 176.051 4.16054C176.052 4.16076 176.052 4.16097 176.053 4.16141C176.054 4.16229 176.056 4.16378 176.06 4.16586C176.067 4.17003 176.077 4.1766 176.091 4.18555C176.12 4.20345 176.164 4.23084 176.222 4.26754C176.338 4.34095 176.512 4.45156 176.74 4.5978C177.196 4.89031 177.866 5.32526 178.713 5.89004C180.409 7.01984 182.815 8.66791 185.645 10.7335C191.313 14.8701 198.647 20.6565 205.376 27.2876C212.131 33.9443 218.143 41.3241 221.323 48.6317C224.476 55.8765 224.759 62.7973 220.542 69.0103L224.06 71.3984C229.351 63.6032 228.748 55.0387 225.222 46.9352C221.723 38.8944 215.265 31.0628 208.361 24.259C201.431 17.4297 193.917 11.5067 188.152 7.29896C185.266 5.1924 182.809 3.50959 181.071 2.35156C180.202 1.77242 179.512 1.32421 179.037 1.01954C178.8 0.867192 178.616 0.750709 178.491 0.671665C178.428 0.632142 178.38 0.601976 178.347 0.581364C178.331 0.571059 178.318 0.563141 178.309 0.557636C178.305 0.554884 178.301 0.552735 178.299 0.551192C178.298 0.550421 178.297 0.549719 178.296 0.549333C178.295 0.548784 178.294 0.548386 177.173 2.35448ZM220.542 69.0103C216.616 74.7933 209.45 75.6271 198.93 73.0859C188.515 70.5701 176.029 65.0364 162.716 59.7042C149.548 54.4302 135.647 49.3925 122.849 48.2215C109.959 47.042 97.9058 49.7693 88.8736 60.3095L92.1023 63.0763C99.9538 53.9139 110.442 51.356 122.461 52.4558C134.572 53.5639 147.948 58.37 161.135 63.6514C174.177 68.8748 187.124 74.6083 197.931 77.219C208.633 79.8042 218.477 79.6235 224.06 71.3984L220.542 69.0103ZM88.8736 60.3095C79.6621 71.0588 80.5648 84.9123 86.7784 98.4958C92.9953 112.087 104.706 125.905 118.11 137.34C131.517 148.778 146.815 157.998 160.369 162.249C173.738 166.442 186.437 166.052 193.178 156.529L189.708 154.072C184.698 161.148 174.682 162.282 161.642 158.192C148.788 154.161 133.984 145.293 120.87 134.105C107.752 122.914 96.5194 109.569 90.645 96.727C84.7673 83.8778 84.43 72.0294 92.1023 63.0763L88.8736 60.3095ZM193.178 156.529C196.423 151.947 197.526 147.049 196.865 142.101C196.212 137.211 193.857 132.408 190.427 127.863C183.58 118.795 172.113 110.318 159.526 103.633C146.913 96.9347 132.958 91.9205 120.96 89.9045C114.966 88.8971 109.365 88.622 104.623 89.3147C99.9016 90.0044 95.7887 91.6929 93.115 94.8413L96.356 97.5936C98.102 95.5376 101.06 94.1323 105.238 93.5221C109.394 92.915 114.52 93.1339 120.256 94.0977C131.719 96.024 145.241 100.861 157.532 107.388C169.848 113.929 180.712 122.053 187.033 130.425C190.186 134.602 192.125 138.729 192.651 142.664C193.168 146.54 192.336 150.36 189.708 154.072L193.178 156.529ZM93.115 94.8413C88.1751 100.658 86.9934 108.251 87.8427 116.197C88.6919 124.142 91.5944 132.718 95.1756 140.865C98.7655 149.032 103.091 156.887 106.868 163.403C110.699 170.013 113.852 175.063 115.291 177.916L119.087 176.002C117.578 173.008 114.241 167.645 110.547 161.271C106.799 154.805 102.565 147.108 99.0682 139.154C95.5632 131.18 92.8528 123.064 92.0706 115.745C91.2884 108.428 92.4566 102.185 96.356 97.5936L93.115 94.8413ZM115.291 177.916C118.426 184.135 126.596 196.032 130.586 209.556C132.558 216.239 133.417 223.091 132.122 229.554C130.838 235.962 127.412 242.132 120.54 247.488L123.154 250.842C130.811 244.873 134.803 237.817 136.291 230.39C137.768 223.018 136.752 215.427 134.664 208.352C130.535 194.359 121.848 181.477 119.087 176.002L115.291 177.916ZM120.541 247.488C113.896 252.663 106.107 253.649 97.2462 252.238C88.3117 250.814 78.5684 246.999 68.2305 242.844C57.988 238.728 47.2006 234.297 36.4963 231.907C25.761 229.51 14.9006 229.113 4.52043 233.233L6.08901 237.185C15.3894 233.493 25.3042 233.765 35.5697 236.057C45.8661 238.356 56.3049 242.634 66.645 246.79C76.8898 250.907 87.0855 254.925 96.5772 256.437C106.143 257.961 115.267 256.985 123.154 250.842L120.541 247.488ZM40.5221 256.294C41.4865 254.399 41.4864 254.399 41.4861 254.399C41.4859 254.399 41.4855 254.399 41.485 254.398C41.484 254.398 41.4825 254.397 41.4805 254.396C41.4765 254.394 41.4705 254.391 41.4625 254.387C41.4465 254.379 41.4227 254.367 41.3912 254.351C41.3283 254.319 41.2348 254.271 41.1126 254.209C40.8683 254.084 40.5094 253.902 40.0511 253.668C39.1345 253.201 37.8203 252.53 36.2305 251.719C33.0507 250.095 28.7688 247.905 24.3592 245.639C15.4908 241.082 6.24083 236.288 4.26432 235.117L2.09717 238.775C4.21709 240.031 13.6378 244.911 22.416 249.421C26.8297 251.689 31.115 253.881 34.2967 255.505C35.8876 256.318 37.2027 256.989 38.1202 257.456C38.5789 257.69 38.9382 257.873 39.1829 257.998C39.3052 258.06 39.3989 258.108 39.462 258.14C39.4936 258.156 39.5175 258.168 39.5335 258.176C39.5415 258.18 39.5476 258.183 39.5516 258.185C39.5537 258.186 39.5552 258.187 39.5562 258.188C39.5567 258.188 39.5571 258.188 39.5574 258.188C39.5576 258.189 39.5578 258.189 40.5221 256.294ZM4.26432 235.117C4.61192 235.323 4.72328 235.623 4.74203 235.699C4.74948 235.73 4.71814 235.608 4.76832 235.251C4.86811 234.54 5.20353 233.463 5.80414 232.045C6.98826 229.25 8.96823 225.664 11.1276 222.071C13.2755 218.496 15.5549 214.988 17.301 212.37C18.1732 211.062 18.9103 209.978 19.4287 209.223C19.6879 208.845 19.8923 208.55 20.0315 208.349C20.1011 208.249 20.1544 208.172 20.1901 208.121C20.2079 208.096 20.2214 208.076 20.2302 208.064C20.2347 208.057 20.2379 208.053 20.2401 208.05C20.2411 208.048 20.2419 208.047 20.2424 208.046C20.2426 208.046 20.2428 208.046 20.2429 208.046C20.2429 208.046 20.2429 208.046 18.5022 206.825C16.7614 205.605 16.7613 205.605 16.761 205.605C16.7609 205.605 16.7606 205.606 16.7602 205.606C16.7595 205.607 16.7585 205.609 16.7572 205.611C16.7546 205.614 16.7509 205.62 16.746 205.627C16.7362 205.641 16.7219 205.661 16.7031 205.688C16.6655 205.742 16.6103 205.821 16.5387 205.924C16.3954 206.131 16.1867 206.432 15.9229 206.817C15.3954 207.585 14.6475 208.685 13.7633 210.011C11.9965 212.661 9.67753 216.228 7.48297 219.881C5.29996 223.514 3.19354 227.307 1.88893 230.387C1.24518 231.906 0.735646 233.391 0.557607 234.659C0.468866 235.292 0.440386 236.014 0.613447 236.716C0.797803 237.465 1.23751 238.266 2.09717 238.775L4.26432 235.117Z" fill="#E0E0E0"/>
</svg>
